HIERARCHY
ROOT Hips
{
	OFFSET -0.001795 -0.223333 0.028219
	CHANNELS 6 Xposition Yposition Zposition Zrotation Yrotation Xrotation 
	JOINT LeftUpLeg
	{
		OFFSET 0.069520 -0.091406 -0.006815
		CHANNELS 3 Zrotation Yrotation Xrotation
		JOINT LeftLeg
		{
			OFFSET 0.034277 -0.375199 -0.004496
			CHANNELS 3 Zrotation Yrotation Xrotation
			JOINT LeftFoot
			{
				OFFSET -0.013596 -0.397961 -0.043693
				CHANNELS 3 Zrotation Yrotation Xrotation
				JOINT LeftToe
				{
					OFFSET 0.026358 -0.055791 0.119288
					CHANNELS 3 Zrotation Yrotation Xrotation
					End Site
					{
						OFFSET 0.000000 0.000000 0.000000
					}
				}
			}
		}
	}
	JOINT RightUpLeg
	{
		OFFSET -0.067670 -0.090522 -0.004320
		CHANNELS 3 Zrotation Yrotation Xrotation
		JOINT RightLeg
		{
			OFFSET -0.038290 -0.382569 -0.008850
			CHANNELS 3 Zrotation Yrotation Xrotation
			JOINT RightFoot
			{
				OFFSET 0.015774 -0.398415 -0.042312
				CHANNELS 3 Zrotation Yrotation Xrotation
				JOINT RightToe
				{
					OFFSET -0.025372 -0.048144 0.123348
					CHANNELS 3 Zrotation Yrotation Xrotation
					End Site
					{
						OFFSET 0.000000 0.000000 0.000000
					}
				}
			}
		}
	}
	JOINT Spine
	{
		OFFSET -0.002533 0.108963 -0.026696
		CHANNELS 3 Zrotation Yrotation Xrotation
		JOINT Spine1
		{
			OFFSET 0.005487 0.135180 0.001092
			CHANNELS 3 Zrotation Yrotation Xrotation
			JOINT Spine2
			{
				OFFSET 0.001457 0.052922 0.025425
				CHANNELS 3 Zrotation Yrotation Xrotation
				JOINT Neck
				{
					OFFSET -0.002778 0.213870 -0.042857
					CHANNELS 3 Zrotation Yrotation Xrotation
					JOINT Head
					{
						OFFSET 0.005152 0.064970 0.051349
						CHANNELS 3 Zrotation Yrotation Xrotation
						End Site
						{
							OFFSET 0.000000 0.000000 0.000000
						}
					}
				}
				JOINT LeftShoulder
				{
					OFFSET 0.078845 0.121749 -0.034090
					CHANNELS 3 Zrotation Yrotation Xrotation
					JOINT LeftArm
					{
						OFFSET 0.090977 0.030469 -0.008868
						CHANNELS 3 Zrotation Yrotation Xrotation
						JOINT LeftForeArm
						{
							OFFSET 0.259612 -0.012772 -0.027456
							CHANNELS 3 Zrotation Yrotation Xrotation
							JOINT LeftHand
							{
								OFFSET 0.249234 0.008986 -0.001171
								CHANNELS 3 Zrotation Yrotation Xrotation
								End Site
								{
									OFFSET 0.000000 0.000000 0.000000
								}
							}
						}
					}
				}
				JOINT RightShoulder
				{
					OFFSET -0.081759 0.118833 -0.038615
					CHANNELS 3 Zrotation Yrotation Xrotation
					JOINT RightArm
					{
						OFFSET -0.096012 0.032551 -0.009143
						CHANNELS 3 Zrotation Yrotation Xrotation
						JOINT RightForeArm
						{
							OFFSET -0.253742 -0.013329 -0.021401
							CHANNELS 3 Zrotation Yrotation Xrotation
							JOINT RightHand
							{
								OFFSET -0.255298 0.007772 -0.005559
								CHANNELS 3 Zrotation Yrotation Xrotation
								End Site
								{
									OFFSET 0.000000 0.000000 0.000000
								}
							}
						}
					}
				}
			}
		}
	}
}
MOTION
Frames: 8
Frame Time: 0.050000
0.000000 0.990324 0.000000 -0.701705 -9.919324 -1.147946 6.063318 -0.140920 -6.625212 2.201183 0.934332 -17.903940 8.707494 22.770387 101.345398 0.000000 0.000000 0.000000 -5.508951 0.558843 -6.270331 3.601804 -0.174733 -15.587169 -48.484872 -27.845787 105.052668 0.000000 0.000000 0.000000 1.360939 -0.340360 6.906678 9.786363 1.153555 -44.164618 -3.874292 13.893888 49.035955 18.313819 2.277200 -90.721042 0.000000 0.000000 0.000000 -25.917723 -15.924714 7.648393 -29.402639 -19.619326 -2.662232 -31.696014 21.887812 -7.254329 0.000000 0.000000 0.000000 25.133275 12.103150 9.079516 41.070242 6.976530 -7.052053 9.730114 -46.485036 -3.225031 0.000000 0.000000 0.000000 
0.000627 0.991090 0.001380 -0.475706 -9.314737 -0.284806 6.466912 -0.170612 -8.128276 0.725949 0.893907 -18.185409 11.620225 23.431415 104.746979 0.000000 0.000000 0.000000 -6.324443 0.602481 -7.085826 2.992908 -0.233389 -15.351689 -43.296818 -26.292123 106.037283 0.000000 0.000000 0.000000 0.063034 -0.243636 6.439121 12.091421 1.754440 -47.802512 -4.312651 16.194855 52.366632 16.776076 2.347818 -94.386301 0.000000 0.000000 0.000000 -22.814553 -17.829711 7.849116 -31.821986 -21.699100 -2.411536 -34.244190 23.875504 -8.518772 0.000000 0.000000 0.000000 23.670050 11.195571 9.129217 41.946674 9.575846 -6.774775 14.176214 -49.118656 -4.856090 0.000000 0.000000 0.000000 
0.001218 0.992319 0.002439 0.257148 -7.830129 -0.701312 5.413906 -0.289118 -8.111204 0.691338 0.869844 -18.368971 11.518406 23.044816 105.407931 0.000000 0.000000 0.000000 -6.556811 0.591313 -7.476080 1.429612 -0.353297 -14.087409 -43.753597 -25.914314 108.519148 0.000000 0.000000 0.000000 -1.349574 -0.177612 7.680025 9.263576 2.461167 -52.932383 -0.329900 13.742074 57.011049 10.250486 2.442366 -100.523343 0.000000 0.000000 0.000000 -21.304122 -18.396653 8.381206 -34.567918 -24.049019 -2.402325 -34.378596 25.848880 -8.988837 0.000000 0.000000 0.000000 21.678214 14.253133 10.182574 39.693758 9.373380 -6.654673 28.406639 -52.842196 -12.758219 0.000000 0.000000 0.000000 
0.002261 0.994160 0.002495 0.062403 -8.286055 0.056338 6.001845 -0.272944 -9.362135 0.176919 0.885860 -18.731436 13.873081 23.746378 109.339536 0.000000 0.000000 0.000000 -6.947535 0.656318 -8.583049 1.454440 -0.341443 -14.026087 -39.475379 -24.317307 109.873720 0.000000 0.000000 0.000000 -1.443965 -0.138576 6.171932 10.887932 2.481781 -52.277364 -0.904037 16.096470 56.636815 14.607757 2.433512 -100.528244 0.000000 0.000000 0.000000 -21.027411 -16.844926 6.982786 -35.081016 -24.204330 -2.226728 -35.919476 27.648013 -10.204335 0.000000 0.000000 0.000000 20.433018 15.223327 10.714039 38.383509 10.020602 -6.108043 28.639324 -55.703407 -13.621704 0.000000 0.000000 0.000000 
0.003428 0.993633 0.002905 0.337879 -6.548813 0.255674 5.119801 -0.422513 -10.222134 0.024874 0.778236 -17.776631 12.960652 23.081329 109.224943 0.000000 0.000000 0.000000 -7.386663 0.612423 -8.498044 0.723682 -0.411391 -14.450086 -39.104131 -23.981620 112.470751 0.000000 0.000000 0.000000 -1.462371 -0.144640 6.372352 9.723740 2.203197 -52.174410 0.101406 15.819059 56.593496 12.715307 2.043185 -101.833932 0.000000 0.000000 0.000000 -21.788215 -17.182565 6.792703 -35.015245 -24.779209 -1.934944 -37.799957 27.823949 -10.928768 0.000000 0.000000 0.000000 19.864639 15.350503 10.883721 35.586485 10.226492 -5.761444 30.680759 -58.300112 -15.752898 0.000000 0.000000 0.000000 
0.004182 0.992654 0.003499 0.618672 -5.870480 0.054632 4.645742 -0.482424 -10.320002 0.103949 0.744594 -17.419330 10.311923 22.473794 108.885589 0.000000 0.000000 0.000000 -8.084055 0.551771 -7.843342 0.621889 -0.439068 -15.044820 -37.428946 -23.528442 113.614634 0.000000 0.000000 0.000000 -1.066068 -0.190089 7.051599 8.754352 2.205902 -52.957878 0.704554 16.507432 57.349656 12.806960 1.680267 -102.481407 0.000000 0.000000 0.000000 -21.400965 -16.364111 5.963563 -35.525363 -24.861319 -1.931813 -41.938103 26.538836 -11.689949 0.000000 0.000000 0.000000 18.494760 15.444187 10.743217 34.366562 9.775647 -5.677863 24.006951 -65.832247 -13.703488 0.000000 0.000000 0.000000 
0.004223 0.991893 0.004034 0.652440 -4.600345 0.048083 4.174680 -0.563931 -10.667127 -0.066075 0.698546 -17.219577 12.826788 22.423331 108.972124 0.000000 0.000000 0.000000 -8.380404 0.496685 -7.249916 0.707780 -0.469106 -15.190160 -37.213798 -23.969404 113.504381 0.000000 0.000000 0.000000 -1.057828 -0.212220 7.730560 8.599572 2.017720 -52.903054 0.551286 16.373748 57.313072 14.956089 1.718013 -102.963966 0.000000 0.000000 0.000000 -22.486370 -16.094528 5.538663 -35.107244 -24.430550 -1.919315 -46.246074 25.915684 -12.748748 0.000000 0.000000 0.000000 18.142836 15.215511 10.688991 32.729697 7.990933 -5.903887 5.914441 -74.234118 -2.304291 0.000000 0.000000 0.000000 
0.003597 0.991506 0.004071 0.613871 -3.817467 -0.179043 3.967446 -0.600937 -10.814072 -0.335306 0.661365 -17.027591 15.733532 22.578926 109.605173 0.000000 0.000000 0.000000 -8.707573 0.451952 -6.738239 0.976491 -0.475752 -15.060085 -35.864087 -24.002730 113.400050 0.000000 0.000000 0.000000 -0.756375 -0.254478 8.249292 7.911931 1.849961 -52.592984 0.646569 16.053864 57.717053 15.667742 1.815940 -104.674777 0.000000 0.000000 0.000000 -22.826384 -15.260360 5.001877 -34.368269 -24.743000 -1.901551 -51.334190 25.091149 -13.862704 0.000000 0.000000 0.000000 18.096202 14.668397 10.459049 31.346738 6.464951 -6.076740 -45.735786 -80.395070 41.447652 0.000000 0.000000 0.000000 
